<?xml version="1.0" encoding="utf-8"?>
<!-- Generator: Adobe Illustrator 21.0.2, SVG Export Plug-In . SVG Version: 6.00 Build 0)  -->
<svg version="1.1" id="Layer_1" xmlns="http://www.w3.org/2000/svg" xmlns:xlink="http://www.w3.org/1999/xlink" x="0px" y="0px"
	 viewBox="0 0 114 114" style="enable-background:new 0 0 114 114;" xml:space="preserve">
<style type="text/css">
	.st0{fill:#DD0E0E;}
</style>
<g id="X">
	<g>
		<path class="st0" d="M107.7,109.6H6.3c-1,0-1.9-0.8-1.9-1.9V6.4c0-1,0.8-1.9,1.9-1.9h101.4c1,0,1.9,0.8,1.9,1.9v101.4
			C109.6,108.8,108.7,109.6,107.7,109.6z"/>
		<path d="M107.7,112.1H6.3c-2.4,0-4.4-2-4.4-4.4V6.4c0-2.4,2-4.4,4.4-4.4h101.4c2.4,0,4.4,2,4.4,4.4v101.4
			C112.1,110.2,110.1,112.1,107.7,112.1z M6.9,107.1h100.2V7H6.9V107.1z"/>
	</g>
	<g>
		<g>
			<g>
				<path d="M19,29c20.2,18.4,40.3,36.9,60.5,55.3c2.8,2.6,5.7,5.2,8.5,7.8c4.7,4.3,11.8-2.7,7.1-7.1C74.9,66.6,54.7,48.2,34.6,29.8
					c-2.8-2.6-5.7-5.2-8.5-7.8C21.3,17.6,14.2,24.7,19,29L19,29z"/>
			</g>
		</g>
		<g>
			<g>
				<path d="M88,22C67.8,40.4,47.7,58.8,27.5,77.3c-2.8,2.6-5.7,5.2-8.5,7.8c-4.8,4.4,2.3,11.4,7.1,7.1
					c20.2-18.4,40.3-36.9,60.5-55.3c2.8-2.6,5.7-5.2,8.5-7.8C99.8,24.7,92.7,17.6,88,22L88,22z"/>
			</g>
		</g>
	</g>
</g>
</svg>